<svg id="svg" version="1.1" viewBox="0 0 300 300" width="300" height="300" xmlns="http://www.w3.org/2000/svg"><svg xmlns="http://www.w3.org/2000/svg"><defs><clipPath id="clip-1"><rect x="0" y="0" transform="scale(0.14648,0.14648)" width="2048" height="2048" fill="none"/></clipPath><linearGradient x1="146.3417" y1="178.72705" x2="146.33672" y2="158.3335" gradientUnits="userSpaceOnUse" id="color-1"><stop offset="0" stop-color="#5b5c5c"/><stop offset="1" stop-color="#878384"/></linearGradient></defs><g clip-path="url(#clip-1)" fill="none" fill-rule="nonzero" stroke="none" stroke-width="1" stroke-linecap="butt" stroke-linejoin="miter" stroke-miterlimit="10" stroke-dasharray="" stroke-dashoffset="0" font-family="none" font-weight="none" font-size="none" text-anchor="none" style="mix-blend-mode: normal"><path d="M151.69922,27.01787c19.28174,0.02827 38.61328,6.7188 47.56201,25.13525c3.52734,-1.09351 22.40479,-8.87739 23.63379,-8.42637c0.01025,0.04307 0.02783,0.08511 0.03223,0.12935c0.23584,2.10688 -13.86621,19.78579 -16.11768,22.33916c0.52881,1.95557 1.02393,4.93931 1.43555,6.98306c1.64648,8.25513 2.55615,16.59478 3.64014,24.9375c0.94043,7.2375 1.88672,15.03076 4.50586,21.89297c2.21777,5.81323 5.48145,11.42725 8.03174,17.14072c2.84619,6.50449 5.30859,13.16982 7.37695,19.9623c3.32959,10.65527 6.52002,21.9082 4.96289,33.271c-0.6958,5.07861 -3.11865,8.3833 -7.2334,11.36279c0.12012,2.34229 0.17432,4.6875 0.1626,7.03271c-0.02783,3.14941 -0.55811,8.23682 0.41455,11.22363c1.10156,3.38379 8.31592,9.6665 8.40527,10.50293c0.09668,0.89795 -0.47314,1.75195 -1.021,2.40527c-4.12646,4.93506 -16.35645,9.38379 -22.79297,10.00049c-2.97363,2.49609 -5.79053,3.82764 -9.25342,5.3877c3.36768,0.59473 11.64844,5.8623 14.00391,8.35107c5.7627,6.09668 -7.01514,7.09277 -10.31396,6.63281c0.09521,1.53369 0.45117,4.06641 -1.49268,4.32568c-3.64893,0.48633 -12.85986,-1.67432 -15.9126,-3.38379c-0.16113,0.89795 -0.79541,2.88281 -1.75781,3.05713c-2.72021,0.49072 -7.92627,-1.42383 -10.4502,-2.57666c-4.54834,-2.07861 -10.94971,-4.68896 -13.6377,-9.02197c-0.62695,-1.23926 0.01611,-2.78467 0.55371,-3.91406c-2.64404,-0.39844 -5.87256,-1.21729 -8.63525,-1.69336c-7.93359,-1.37109 -15.74399,-2.34082 -23.80518,-2.06689c-2.20386,0.10107 -4.35176,0.34424 -6.54053,0.44824c0.34819,1.05762 1.00649,3.22998 0.07222,4.14697c-6.17095,6.05713 -16.83003,7.5542 -24.88433,9.92871c-3.46245,1.021 -6.66343,0.7793 -7.49634,-3.24902c-4.22534,0.94629 -8.40132,2.37305 -12.78062,2.4082c-1.30254,0.01025 -3.13857,-0.07617 -3.88491,-1.3374c-0.37939,-0.6416 -0.08467,-1.31689 0.11353,-1.97754c-3.44692,0.26953 -7.1439,-0.18896 -9.03442,-3.4541c2.08594,-6.65771 14.42666,-10.604 20.51953,-12.65332c-0.91553,-0.56836 -1.93755,-1.56006 -2.71846,-2.32031c-3.00176,-2.89746 -5.58516,-6.20068 -7.67563,-9.81152c-3.79409,-6.68555 -6.36753,-16.69189 -6.47432,-24.42041c-1.32612,0.06885 -3.66973,-0.10986 -5.02354,-0.19189l-7.823,-0.49219c-1.20234,-1.36816 -1.31484,-2.52393 -2.2667,-3.7002c-0.91919,-1.13525 -2.27197,-2.27783 -3.28887,-3.50977c-6.07529,-7.35645 -6.47783,-21.7207 -2.06133,-29.85791c1.93286,-3.55957 6.27158,-8.42725 9.11851,-11.51221c11.44585,-12.40356 25.24761,-24.02461 32.60332,-39.55356c3.55591,-7.50688 3.14502,-14.72725 3.70415,-22.79326c0.39976,-5.76841 0.7604,-11.07642 1.41401,-16.84263c-0.77856,-1.76895 -2.73604,-3.71733 -3.65332,-5.04082c-2.15654,-3.11147 -19.53589,-25.79824 -19.75034,-28.23809l0.19453,-0.21021c0.68364,0.04556 6.02695,2.19331 6.93267,2.54927l13.07944,5.25747c3.42817,1.37871 7.03491,2.7583 10.38633,4.27778c0.50098,-0.8502 1.22285,-2.55557 1.74302,-3.54287c1.56533,-3.01099 3.48765,-5.82261 5.72534,-8.37393c8.00566,-9.16421 20.15229,-14.91563 32.10278,-16.46089c1.77422,-0.22939 3.56572,-0.34277 5.3499,-0.46304z" fill="#060606"/><path d="M101.58677,80.1728c1.32729,1.12881 9.3813,9.80771 10.02891,11.09136c2.63379,2.36177 4.87676,5.60127 7.27896,7.74624c0.78384,-0.28081 1.57163,-0.55371 2.33965,-0.87495c0.2874,3.20142 2.23286,5.14717 4.66992,7.08823c4.20586,3.34995 10.59448,7.37666 15.54624,9.45425c6.69507,1.90972 16.13452,-2.46211 22.22241,-5.43574c2.57813,-1.20879 6.9126,-3.86587 8.63525,-6.07603c0.59619,-0.76509 1.19678,-1.84702 1.67285,-2.70557c0.57568,0.10122 1.1543,0.14883 1.73438,0.20801c2.78027,-2.30771 6.07764,-6.76099 9.15967,-9.43257c0.57715,0.16655 1.2832,0.45103 1.85889,0.66357c7.06787,4.60166 5.09766,13.99175 1.34473,20.10835c-0.67822,1.10581 -1.94092,2.36777 -2.521,3.41455c-1.55127,1.64048 -2.57666,2.69121 -4.34033,4.14741c-0.80859,0.66753 -2.75244,2.06426 -3.36182,2.66865l-0.27246,0.1251c0.32666,0.50186 7.1499,1.21201 8.3291,1.42075c-1.35352,0.83994 -1.69775,0.93354 -3.28564,1.23442c1.20264,1.08662 2.76855,2.44087 3.77783,3.67251c5.85791,7.14419 8.75537,15.32358 10.9585,24.06255l0.24902,1.0752c0.75293,2.8125 1.78857,8.01416 1.96289,10.86621c-1.51611,-0.03369 -3.51416,-0.05273 -4.99219,-0.30029c-3.59619,-0.10547 -7.58936,-0.4585 -11.18115,-0.71631l-16.43408,-1.1499l-42.30557,-2.75098l-22.2665,-1.38135l-6.1207,-0.35303c-0.97881,-0.05127 -2.7375,-0.06445 -3.64146,-0.22998c-0.18677,-0.40283 -0.05156,-0.94775 0.00776,-1.41211l-0.1582,-0.30176c-0.15967,0.60059 -0.3082,1.3667 -0.72158,1.79297c-0.42612,0.03223 -0.21108,0.06299 -0.63618,-0.24609c-0.53789,-1.90137 4.17114,-18.83013 4.69849,-21.65742c0.47446,-2.54341 0.99214,-6.85386 1.40889,-9.48091c-1.55728,3.08789 -2.59102,7.12485 -3.8978,10.39497c-2.03042,5.08037 -4.19209,9.67354 -7.08911,14.3376c-0.96636,1.55566 -2.16401,4.56738 -3.825,5.51074c-1.26035,0.71484 -4.06348,0.09814 -5.50767,0.12451c-3.57158,0.08936 -7.67021,-0.96826 -10.81128,0.93018l-0.17534,0.10693c-1.27397,2.08154 -1.58174,4.78711 -1.67622,7.17334c-0.96562,-0.1377 -4.51699,-1.46045 -5.83594,-1.86475c2.44658,-3.5874 6.58008,-7.2041 9.64658,-10.32568c11.4728,-11.67847 22.05908,-21.76245 29.07275,-36.8959c0.42305,1.00576 1.20601,3.15073 2.39106,3.18691c0.34351,-0.72612 0.1437,-9.60718 0.17856,-11.22363c0.18003,-9.28843 0.80874,-18.56279 1.88394,-27.79058z" fill="#fefefd"/><path d="M101.58677,80.1728c1.32729,1.12881 9.3813,9.80771 10.02891,11.09136c-6.3249,2.46812 -5.60083,8.94258 -4.37417,14.40308c1.13188,3.51606 2.32544,6.53965 4.64136,9.39624c0.20552,0.25342 1.30913,1.73379 1.38354,1.95894c0.68262,0.64351 1.9377,2.14248 2.50576,2.92808c-1.53691,-0.33105 -3.24214,-0.66738 -4.81523,-0.75337c0.33179,0.74121 0.59868,1.38369 1.02363,2.08052c-9.75454,6.43521 -16.20967,20.14497 -18.56309,31.33711c-0.25693,1.22168 -0.47578,2.59277 -0.77666,3.78662l-0.1582,-0.30176c-0.15967,0.60059 -0.3082,1.3667 -0.72158,1.79297c-0.42612,0.03223 -0.21108,0.06299 -0.63618,-0.24609c-0.53789,-1.90137 4.17114,-18.83013 4.69849,-21.65742c0.47446,-2.54341 0.99214,-6.85386 1.40889,-9.48091c-1.55728,3.08789 -2.59102,7.12485 -3.8978,10.39497c-2.03042,5.08037 -4.19209,9.67354 -7.08911,14.3376c-0.96636,1.55566 -2.16401,4.56738 -3.825,5.51074c-1.26035,0.71484 -4.06348,0.09814 -5.50767,0.12451c-3.57158,0.08936 -7.67021,-0.96826 -10.81128,0.93018l-0.17534,0.10693c-1.27397,2.08154 -1.58174,4.78711 -1.67622,7.17334c-0.96562,-0.1377 -4.51699,-1.46045 -5.83594,-1.86475c2.44658,-3.5874 6.58008,-7.2041 9.64658,-10.32568c11.4728,-11.67847 22.05908,-21.76245 29.07275,-36.8959c0.42305,1.00576 1.20601,3.15073 2.39106,3.18691c0.34351,-0.72612 0.1437,-9.60718 0.17856,-11.22363c0.18003,-9.28843 0.80874,-18.56279 1.88394,-27.79058z" fill="#37373b"/><path d="M107.2415,105.66724c1.13188,3.51606 2.32544,6.53965 4.64136,9.39624c0.20552,0.25342 1.30913,1.73379 1.38354,1.95894c-0.16934,0.03926 -0.05376,0.02461 -0.34731,-0.03911c-2.52305,-3.12407 -5.05503,-7.12793 -5.83198,-11.12988z" fill="#060606"/><path d="M141.45044,114.67793c6.69507,1.90972 16.13452,-2.46211 22.22241,-5.43574c0.16846,0.44106 0.24023,0.36592 0.00146,0.8209c-2.80078,5.33525 -9.37207,12.49702 -15.96533,8.5333c-1.50029,-0.9022 -5.6269,-2.29248 -6.25854,-3.91846z" fill="#d2d2d3"/><path d="M197.61182,153.8291c0.75293,2.8125 1.78857,8.01416 1.96289,10.86621c-1.51611,-0.03369 -3.51416,-0.05273 -4.99219,-0.30029c0.82324,-3.02051 2.01709,-5.79932 2.47412,-9c0.08936,-0.62109 0.19629,-1.05762 0.55518,-1.56592z" fill="#d2d2d3"/><path d="M84.46348,205.94971c3.08628,0.01172 8.0105,0.52002 11.17617,0.75146l21.54756,1.53369l60.7415,3.93604l12.09814,0.79395c1.6333,0.1084 6.60791,0.34717 7.85742,0.81445c0.25635,0.41895 0.14648,0.8042 0.09961,1.31543c-0.69434,3.27539 -2.19434,9.3999 -4.22314,11.94727c-1.17334,2.10352 -2.54004,3.47461 -3.36621,4.88086c-6.47021,6.50537 -11.29687,9.25928 -20.23535,11.6001c-0.14648,0.02637 -0.67676,0.1084 -0.78076,0.15234c-1.36523,0.19629 -2.7334,0.38672 -4.11621,0.37354c-4.48096,0.56543 -13.08545,0.43945 -17.77441,0.47021c-4.32261,0.04102 -8.64595,0.04541 -12.96899,0.01318c-3.52354,-0.03369 -8.47881,-0.12305 -11.95005,-0.7998c-1.27661,-0.09668 -2.33101,-0.35156 -3.57173,-0.62109l0.02065,0.16113c0.15981,0.1084 0.28315,0.18896 0.45132,0.28711l0.1355,0.07617c-1.43247,0.63721 -11.03408,-1.4502 -12.30176,-0.49805c-0.09287,0.66797 1.61968,1.91895 2.15786,2.71289c-2.67788,-0.29004 -5.27842,-1.44434 -7.71768,-2.47559c-8.36382,-3.53467 -14.44951,-9.99023 -15.09741,-19.32861c-0.08188,-1.1792 -0.13213,-4.89404 0.346,-5.89307l0.68232,0.20801l-0.31172,-0.88037c-1.42998,-2.94727 -2.44629,-8.27344 -2.89863,-11.53125z" fill="#fefefd"/><path d="M84.46348,205.94971c3.08628,0.01172 8.0105,0.52002 11.17617,0.75146l21.54756,1.53369l60.7415,3.93604l12.09814,0.79395c1.6333,0.1084 6.60791,0.34717 7.85742,0.81445c0.25635,0.41895 0.14648,0.8042 0.09961,1.31543c-0.69434,3.27539 -2.19434,9.3999 -4.22314,11.94727c-2.73047,-2.67041 -12.47021,-5.41992 -16.29053,-6.45117c-12.36182,-3.32812 -24.9624,-5.70117 -37.68794,-7.09863c-13.15312,-1.53955 -26.88311,-2.29248 -40.05249,0.01611c-2.26143,0.39697 -11.2623,2.39648 -12.36768,3.97266c-1.42998,-2.94727 -2.44629,-8.27344 -2.89863,-11.53125z" fill="#d2d2d3"/><path d="M109.4606,245.85059c-2.67788,-0.29004 -5.27842,-1.44434 -7.71768,-2.47559c-8.36382,-3.53467 -14.44951,-9.99023 -15.09741,-19.32861c-0.08188,-1.1792 -0.13213,-4.89404 0.346,-5.89307l0.68232,0.20801c0.40195,0.74854 0.79907,1.52637 1.16968,2.29248c1.81304,3.74414 4.80703,7.03271 7.65483,10.00928c2.29277,2.03027 5.38096,4.604 8.04009,6.1582c4.04956,2.2749 7.93506,4.20996 12.38657,5.56787c0.55679,0.16992 1.59141,0.4834 2.07202,0.72217l0.02065,0.16113c0.15981,0.1084 0.28315,0.18896 0.45132,0.28711l0.1355,0.07617c-1.43247,0.63721 -11.03408,-1.4502 -12.30176,-0.49805c-0.09287,0.66797 1.61968,1.91895 2.15786,2.71289z" fill="#37373b"/><path d="M96.49834,230.66309c2.29277,2.03027 5.38096,4.604 8.04009,6.1582l-0.16289,0.07764c-1.25347,-0.17285 -6.16187,-4.16895 -7.18359,-5.23828c-0.26514,-0.27832 -0.48809,-0.5083 -0.82559,-0.77637z" fill="#060606"/><path d="M122.56875,243.73242c1.57954,-0.89209 3.69185,-0.97559 5.40996,-1.43555c11.84751,-3.17139 24.29033,-0.76904 36.13652,1.13086c0.38965,0.06152 0.93457,0.25781 1.14697,0.62109c-4.48096,0.56543 -13.08545,0.43945 -17.77441,0.47021c-4.32261,0.04102 -8.64595,0.04541 -12.96899,0.01318c-3.52354,-0.03369 -8.47881,-0.12305 -11.95005,-0.7998z" fill="#d2d2d3"/><path d="M145.97358,73.62217c1.53618,-0.31699 4.61821,-1.58057 6.19438,-2.18218l10.98193,-4.20425l37.83984,-14.5418l12.46729,-4.9002c1.34912,-0.52603 6.61523,-2.84268 7.51758,-2.37715c-0.93164,2.30977 -4.14697,6.24683 -5.80078,8.41772c-9.77051,12.81782 -20.9209,24.83042 -31.82373,36.69199c-2.67773,2.91445 -5.49463,5.58091 -8.15479,8.42271c-2.62061,-1.20937 -10.50146,-4.10303 -12.19336,-5.54824c-0.57275,-0.30308 -1.19824,-0.68408 -1.76514,-1.01177c-1.20996,-0.42759 -2.83154,-1.60825 -3.97852,-2.25015c-3.72363,-2.08228 -9.20068,-6.18428 -12.91099,-7.68691c-1.97681,0.96753 -5.85088,3.69067 -7.94971,4.93887c-5.37305,3.19541 -11.68477,7.24629 -17.34463,9.74575c-1.25625,-1.11196 -4.26943,-4.66289 -5.51074,-6.11968c-2.3064,-2.70615 -5.21616,-5.71641 -7.37754,-8.42915l-1.36465,-1.42339c-1.20059,-1.35176 -3.56543,-3.77988 -4.27178,-5.21748c-0.98218,-1.10947 -1.93506,-2.24443 -2.85791,-3.40371c-1.63286,-1.83149 -3.61655,-4.7373 -5.16929,-6.74956c-4.89712,-6.34614 -9.34248,-12.98145 -13.82549,-19.61938c-0.40327,-0.3457 -0.31348,-0.18384 -0.51621,-0.62666c0.81299,-0.22236 14.60903,5.67949 16.37051,6.4043l31.67358,13.30825l11.53154,4.99028c2.56406,1.11401 5.61387,2.51543 8.23857,3.37178z" fill="#fe4e10"/><path d="M120.20859,64.39673c6.47959,2.7394 13.76543,6.25649 20.14629,9.23247c-0.85078,2.325 -1.82183,5.30449 -2.82275,7.5293c-0.12832,0.39082 -0.31318,0.90513 -0.41953,1.29038l-0.19893,1.56079c2.57886,-2.49463 7.5019,-6.74312 10.27676,-8.92515c0.8042,-0.63325 6.84375,-2.6291 8.30566,-3.1771c6.52588,-2.51909 13.0752,-4.98179 19.64502,-7.38779c-2.31299,4.53032 -5.76855,9.30498 -7.9043,13.72397c-2.70703,0.57773 -9.99023,1.76704 -11.43604,3.76758l-0.01611,0.26411c0.64307,0.55327 2.35693,0.07559 3.16699,-0.07061c0.5127,2.26685 1.74316,3.87041 3.4292,5.42227c1.37256,0.87041 2.00391,1.2394 3.56689,1.69585c-0.97852,1.4146 -1.87646,2.72725 -2.9458,4.07798c-0.57275,-0.30308 -1.19824,-0.68408 -1.76514,-1.01177c-1.20996,-0.42759 -2.83154,-1.60825 -3.97852,-2.25015c-3.72363,-2.08228 -9.20068,-6.18428 -12.91099,-7.68691c-1.97681,0.96753 -5.85088,3.69067 -7.94971,4.93887c-5.37305,3.19541 -11.68477,7.24629 -17.34463,9.74575c-1.25625,-1.11196 -4.26943,-4.66289 -5.51074,-6.11968c-2.3064,-2.70615 -5.21616,-5.71641 -7.37754,-8.42915c0.67192,-0.71646 3.16436,-3.93662 3.90337,-4.90181c3.31011,-4.32231 7.00811,-8.87007 10.14053,-13.28921z" fill="#fe4e10"/><path d="M112.73364,75.66445c0.44531,-0.11382 0.90688,-0.24316 1.36377,-0.29795c2.3521,-0.28242 17.81016,3.46187 20.86509,4.50732c0.94351,0.323 1.7855,0.64746 2.56963,1.28467c-0.12832,0.39082 -0.31318,0.90513 -0.41953,1.29038c-0.51284,-0.05903 -2.76914,-0.90176 -3.42334,-1.1209c-1.35952,9.62402 -9.70913,9.57114 -16.30386,4.80234c-3.52544,-2.54912 -4.17437,-6.39375 -4.65176,-10.46587z" fill="#060606"/><path d="M113.6439,76.97666c2.69956,0.35068 5.69766,1.2022 8.50444,1.64824c0.03296,4.06655 0.69023,6.9939 3.60601,9.88652c-2.65708,-0.06577 -5.48921,-1.13174 -7.61514,-2.69531c-3.14868,-2.31592 -3.91333,-5.20957 -4.49531,-8.83945z" fill="#fefefd"/><path d="M128.8229,80.07891c0.49951,-0.25283 1.10947,-0.06929 1.38633,0.41719c0.277,0.48647 0.12363,1.10479 -0.34863,1.40537c-0.32681,0.20801 -0.74165,0.21899 -1.07915,0.02886c-0.3375,-0.19028 -0.54287,-0.55078 -0.53423,-0.93823c0.00864,-0.3873 0.22998,-0.73828 0.57568,-0.91318z" fill="#fefefd"/><path d="M162.38086,87.62695c1.37256,0.87041 2.00391,1.2394 3.56689,1.69585c-0.97852,1.4146 -1.87646,2.72725 -2.9458,4.07798c-0.57275,-0.30308 -1.19824,-0.68408 -1.76514,-1.01177l-0.92285,-0.99009z" fill="#fee8b0"/><path d="M145.97358,73.62217c1.53618,-0.31699 4.61821,-1.58057 6.19438,-2.18218l10.98193,-4.20425l37.83984,-14.5418l12.46729,-4.9002c1.34912,-0.52603 6.61523,-2.84268 7.51758,-2.37715c-2.89746,1.58862 -5.63672,2.86523 -8.61035,4.14185c-1.17627,0.50552 -6.68115,2.76577 -7.01074,3.17739c-5.61182,7.01909 -11.75098,16.47979 -17.39648,23.18306c0.70459,-1.51377 2.1958,-3.71016 3.12012,-5.17896c2.40527,-3.78223 4.84424,-7.54438 7.3125,-11.28589c0.93604,-1.43115 2.68799,-3.93516 3.46582,-5.33042c-3.22852,1.24365 -6.40576,2.58647 -9.61523,3.86895c-1.56445,0.62446 -3.52881,1.1165 -4.91748,2.04697c-1.12939,0.75659 -10.09424,14.54531 -11.12256,16.52197c-2.96045,0.525 -6.05566,1.18608 -8.96338,1.68208c2.13574,-4.41899 5.59131,-9.19365 7.9043,-13.72397c-6.56982,2.40601 -13.11914,4.8687 -19.64502,7.38779c-1.46191,0.548 -7.50146,2.54385 -8.30566,3.1771c-2.77485,2.18203 -7.6979,6.43052 -10.27676,8.92515l0.19893,-1.56079c0.10635,-0.38525 0.29121,-0.89956 0.41953,-1.29038c1.00093,-2.2248 1.97197,-5.2043 2.82275,-7.5293c-6.38086,-2.97598 -13.6667,-6.49307 -20.14629,-9.23247c-3.13242,4.41914 -6.83042,8.96689 -10.14053,13.28921c-0.73901,0.96519 -3.23145,4.18535 -3.90337,4.90181l-1.36465,-1.42339c-1.20059,-1.35176 -3.56543,-3.77988 -4.27178,-5.21748c-0.98218,-1.10947 -1.93506,-2.24443 -2.85791,-3.40371c-1.63286,-1.83149 -3.61655,-4.7373 -5.16929,-6.74956c-4.89712,-6.34614 -9.34248,-12.98145 -13.82549,-19.61938c-0.40327,-0.3457 -0.31348,-0.18384 -0.51621,-0.62666c0.81299,-0.22236 14.60903,5.67949 16.37051,6.4043l31.67358,13.30825l11.53154,4.99028c2.56406,1.11401 5.61387,2.51543 8.23857,3.37178z" fill="#fee8b0"/><path d="M78.67559,46.17422c0.86558,0.32461 1.47407,0.80244 2.2979,1.24204c1.30181,0.68423 2.62573,1.32524 3.96973,1.92231l12.32651,5.51323c2.60757,1.19019 5.8626,2.65576 8.33467,4.12251l-5.01006,8.49492c-0.76567,1.28599 -2.34756,3.79526 -2.92397,5.07393c-1.63286,-1.83149 -3.61655,-4.7373 -5.16929,-6.74956c-4.89712,-6.34614 -9.34248,-12.98145 -13.82549,-19.61938z" fill="#fe4e10"/><path d="M112.53853,61.45942c1.15474,0.39844 2.13955,0.75278 3.26499,1.22227c-3.38657,5.13369 -6.30557,10.45649 -9.48164,15.72334c-0.54111,0.89722 -1.07476,1.8104 -1.52183,2.75933c-1.20059,-1.35176 -3.56543,-3.77988 -4.27178,-5.21748c1.50278,-1.61045 3.5792,-4.30181 5.07993,-6.08716c2.10161,-2.50034 5.07114,-5.78115 6.93032,-8.40029z" fill="#fe4e10"/><path d="M176.2002,76.56152c1.74463,-0.27495 9.37207,-2.17412 10.51172,-1.44258c0.04248,0.02739 0.0791,0.06431 0.11865,0.09639c0.0249,0.94336 -0.61084,1.09263 -1.36377,1.36216c-0.07178,9.33867 -5.06104,13.81802 -14.2749,13.40713c-2.06543,-0.09214 -3.19043,-0.17065 -5.24414,-0.66182c-1.56299,-0.45645 -2.19434,-0.82544 -3.56689,-1.69585c-1.68604,-1.55186 -2.9165,-3.15542 -3.4292,-5.42227c-0.81006,0.14619 -2.52393,0.62388 -3.16699,0.07061l0.01611,-0.26411c1.4458,-2.00054 8.729,-3.18984 11.43604,-3.76758c2.90771,-0.496 6.00293,-1.15708 8.96338,-1.68208z" fill="#060606"/><path d="M168.1626,80.17178c0.91846,-0.16787 0.71484,2.1854 0.91406,2.95752c0.65625,2.54707 1.54102,4.20527 3.51855,5.96748c-2.92676,-0.04761 -4.45898,-0.04468 -7.2832,-0.95493c-3.20947,-1.26357 -4.44141,-3.04351 -5.62061,-6.12935c2.73047,-0.48252 5.63232,-1.31367 8.47119,-1.84072z" fill="#fefefd"/><path d="M184.20996,77.05723l0.22412,0.03296l0.12744,0.23936c-0.39697,4.25654 -1.58203,8.4728 -5.74365,10.46235c-0.05273,-0.32373 0.17285,-0.55122 0.38232,-0.85093c1.93066,-2.76475 1.76953,-5.7813 1.1543,-8.93833c1.4209,-0.28872 2.46826,-0.49277 3.85547,-0.94541z" fill="#fefefd"/><path d="M173.7334,79.24087c0.44824,0.06475 0.44531,0.10576 0.83789,0.35493c0.48047,0.95991 -0.12012,1.41372 -0.86865,1.92261c-1.41064,-0.14663 -1.93506,-1.75283 0.03076,-2.27754z" fill="#fefefd"/><path d="M149.38477,28.18286c1.61426,-0.15864 3.39844,-0.11206 5.02295,-0.08643c17.81104,0.28081 34.82813,7.58174 41.28076,25.40669c-2.24707,1.00313 -5.01709,2.00698 -7.3374,2.91094l-13.88232,5.37583l-18.67822,7.19546c-2.61621,0.99126 -5.14746,2.05298 -7.79443,2.98037c-0.77197,0.23218 -1.61089,0.39917 -2.40132,0.57539c-1.35396,-2.09736 -1.99233,-5.22129 -3.37397,-7.42163c0.37822,1.96157 0.94424,4.4354 1.11841,6.36958c-1.90884,-0.67983 -4.15635,-1.70947 -6.04219,-2.52202c-3.36724,-1.43496 -6.72158,-2.9001 -10.06245,-4.39512c-6.1834,-2.69766 -12.39565,-5.32852 -18.6356,-7.89229c1.98105,-4.32876 3.66372,-7.73452 6.76333,-11.38726c8.9543,-10.55156 20.4624,-15.79175 34.02246,-17.10952z" fill="#37373b"/><path d="M128.39531,36.64585c1.00225,-0.03867 2.00786,-0.11309 2.51177,0.90469c0.04893,2.8623 -5.37612,6.29136 -7.89302,7.07153c-0.96797,0.08218 -1.53398,0.27861 -2.25615,-0.30571c-0.60234,-2.28618 5.63833,-6.98877 7.6374,-7.67051z" fill="#888687"/><path d="M124.6686,56.66968c3.07998,0.38467 10.8498,7.67227 12.80508,10.18169c-2.14204,-0.58096 -10.16719,-8.22275 -12.80508,-10.18169z" fill="#060606"/><path d="M163.90723,61.22139c0.11279,0.10562 0.04102,0.02402 0.1377,0.29736c-1.17334,1.5397 -6.65918,5.4167 -8.55029,6.09946c-0.09814,-0.10342 -0.04102,-0.02974 -0.12158,-0.25078c1.9834,-1.81025 6.19336,-4.92993 8.53418,-6.14604z" fill="#060606"/><path d="M133.46411,39.34761c2.51982,0.14634 1.12383,2.75449 -0.43726,3.62959c-0.61626,0.10957 -0.71675,0.10693 -1.16104,-0.27319c-0.45381,-1.27427 0.70298,-2.59321 1.59829,-3.3564z" fill="#6e6d6e"/><path d="M186.73389,91.89961l-0.07617,-0.26646c-0.48047,-0.30571 -0.92725,-0.47095 -1.13232,-0.91567c0.75146,-1.21494 3.31787,-3.78809 4.34619,-4.99409c3.37207,-3.95156 7.2334,-7.90605 10.44287,-11.96719c0.4292,3.67368 1.24219,7.575 1.7666,11.3124c0.68994,5.18394 1.17627,10.39277 1.45898,15.61479c0.22705,3.83774 0.3999,6.63354 -0.01904,10.49971c-0.44824,4.12778 -1.97314,7.55903 -2.66016,11.47119c1.20703,-1.04956 3.80127,-3.94849 5.28662,-3.7311c1.69922,0.24873 3.9668,3.71851 4.81787,5.02207c2.61328,4.00269 4.50293,8.22188 6.47461,12.51577c5.47852,11.93936 8.46094,23.11904 7.69189,36.36563c0.49072,0.27832 0.97705,0.48193 1.28027,0.94775c0.12744,0.66211 -0.17139,1.2334 -0.54932,1.771c-5.61475,7.98633 -13.73877,14.43164 -23.40234,16.58643c-3.20947,0.71631 -7.0415,-0.31641 -3.38672,-3.84375c1.29199,-1.24658 3.31494,-2.52832 4.80469,-3.59326c3.17285,-2.28662 6.39111,-4.50879 9.65479,-6.66211c1.42529,-0.92725 6.50391,-3.66504 6.5918,-5.21631c-0.63574,-0.41016 -2.05664,-0.11572 -2.80371,0.0498c-0.40576,0.09229 -0.81006,0.19336 -1.21143,0.30322c-0.2124,-1.45605 -0.55957,-5.99854 -1.68018,-6.53467c-2.17236,-1.03857 -9.57275,-1.35937 -11.97217,-1.45459c1.46338,-4.2334 3.72363,-11.66455 3.80713,-16.0459c-1.58936,1.63477 -2.35547,3.8042 -3.57568,5.76563c-1.4707,-5.39941 -1.64355,-11.5311 -2.87695,-17.04448c-0.39551,-1.76675 -0.6416,-4.09336 -1.39893,-5.71538c-0.19482,6.7834 0.35303,13.46587 -0.43945,20.25791c-0.27393,0.1084 -0.17285,0.07178 -0.50098,0.03662l-0.10986,0.31934c-2.20312,-8.73896 -5.10059,-16.91836 -10.9585,-24.06255c-1.00928,-1.23164 -2.5752,-2.58589 -3.77783,-3.67251c1.58789,-0.30088 1.93213,-0.39448 3.28564,-1.23442c-1.1792,-0.20874 -8.00244,-0.9189 -8.3291,-1.42075l0.27246,-0.1251c0.60938,-0.60439 2.55322,-2.00112 3.36182,-2.66865c1.76367,-1.4562 2.78906,-2.50693 4.34033,-4.14741c0.58008,-1.04678 1.84277,-2.30874 2.521,-3.41455c3.75293,-6.1166 5.72314,-15.50669 -1.34473,-20.10835z" fill="#37373b"/><path d="M185.55762,115.42251c-0.19775,1.49355 -6.13916,6.50508 -7.70215,6.81606c0.60938,-0.60439 2.55322,-2.00112 3.36182,-2.66865c1.76367,-1.4562 2.78906,-2.50693 4.34033,-4.14741z" fill="#060606"/><path d="M58.93975,198.75439c-0.1188,-1.03125 -0.09756,-4.59961 0.63442,-5.35107c1.33008,-1.3667 3.11396,1.02832 3.8855,1.9585c1.4918,0.26514 4.21919,0.36914 5.84473,0.47754l10.08135,0.64893l28.33315,1.81787l95.15464,6.61816c0.69873,-2.35107 1.25537,-5.45508 1.74316,-7.90283c0.98291,-0.01025 2.94873,-0.02783 3.4585,0.87744l0.12744,0.21387l0.12891,-0.2124c0.77344,-0.25781 1.93213,0.40576 2.68066,0.77783c0.39111,0.19629 0.7793,0.39551 1.16602,0.59912c-0.55811,3.2666 -2.02002,10.8457 -3.60205,13.57764c-3.64893,0.51563 -10.29932,-0.45557 -14.00537,-0.6665c-4.77246,-0.27246 -9.62402,-0.64453 -14.39209,-0.94189l-83.04595,-5.47998c-5.70923,-0.38086 -11.46885,-0.77344 -17.18188,-1.11035c-6.14385,-0.36182 -13.26211,0.11572 -19.275,-0.96973c-1.02437,-2.15771 -1.2835,-2.67627 -1.73613,-4.93213z" fill="#37373b"/><path d="M58.93975,198.75439c-0.1188,-1.03125 -0.09756,-4.59961 0.63442,-5.35107c1.33008,-1.3667 3.11396,1.02832 3.8855,1.9585c1.4918,0.26514 4.21919,0.36914 5.84473,0.47754l10.08135,0.64893l28.33315,1.81787l95.15464,6.61816c0.69873,-2.35107 1.25537,-5.45508 1.74316,-7.90283c0.98291,-0.01025 2.94873,-0.02783 3.4585,0.87744c-0.03369,0.08057 -0.06738,0.1626 -0.09814,0.24463c-0.54346,1.41064 -1.04297,8.66748 -2.39941,9.1377c-0.94189,0.32666 -33.19336,-2.00391 -38.00537,-2.30713l-79.69966,-4.74023l-19.6144,-1.08252c-2.92485,-0.14355 -6.47358,-0.14648 -9.31846,-0.39697z" fill="#888687"/><path d="M140.79653,87.18545c1.74097,-0.46245 3.75381,-0.93896 5.56567,-0.54653c5.19785,1.12573 9.53232,4.91221 14.02061,7.56841c2.58252,1.52783 5.36133,2.62529 8.1416,3.72612c-0.53174,0.61948 -1.77246,2.17515 -2.43164,2.45142c-7.56592,3.16904 -16.29199,4.86226 -24.26982,6.41807c-4.36948,0.8521 -13.07344,-6.90981 -13.94033,-6.74619c-0.49204,1.99512 10.56621,7.69761 12.66563,7.62612c7.39512,-0.25181 14.95518,-2.88369 22.03184,-4.98223c2.85938,-0.84785 6.16992,-1.15781 6.38525,-4.48682c0.65918,-0.04336 2.91504,1.0125 3.66797,1.3355c-2.00684,4.99834 -8.2749,7.86753 -13.07227,9.87319c-5.70264,2.38403 -13.5668,5.54883 -19.58306,2.94478c-4.84893,-2.17866 -14.44482,-7.40991 -16.96289,-12.39888c-0.32886,-0.65127 -0.31362,-1.84424 -0.29414,-2.55908c2.44424,-1.53252 5.14731,-3.02783 7.65688,-4.50542c2.88633,-1.69951 5.9937,-3.60044 8.96895,-5.07158c0.38115,-0.22866 1.02349,-0.47021 1.44976,-0.64687z" fill="#fecc34"/><path d="M139.34678,87.83232c0.38115,-0.22866 1.02349,-0.47021 1.44976,-0.64687c-0.26968,1.50308 -2.37437,7.21714 -3.53906,7.94531c-0.64497,-1.51025 1.75664,-5.58809 2.08931,-7.29844z" fill="#fee8b0"/><path d="M86.59834,244.80469c1.49341,-0.61523 3.92124,-1.45752 5.5251,-1.74756c2.13281,0.84814 4.23706,1.84717 6.34834,2.69238c7.20161,2.87842 14.07422,4.03125 21.81313,3.61816c1.66055,-0.08936 4.78315,-0.43506 5.3562,1.27148c0.12979,0.38672 0.19351,0.76904 0.00923,1.14844c-1.06758,2.20313 -5.92969,4.021 -8.08506,4.88379c-1.64209,0.65625 -4.23677,1.49707 -5.8541,1.91309c-2.15698,0.61816 -11.81792,3.85986 -13.59067,2.81982c-1.31338,-0.77197 -1.6875,-2.63232 -2.05898,-3.98584c-2.94419,0.5874 -12.92402,4.05469 -15.56074,2.50781c-2.42915,-1.42383 4.71006,-8.91943 5.89849,-10.10449c-3.7021,1.97314 -5.20854,3.68408 -7.5769,7.1001c-2.11992,0.1333 -6.07837,0.06006 -7.46631,-1.86768c-1.00518,-1.39453 3.25166,-4.37988 4.24146,-5.04492c3.40371,-2.28809 7.17407,-3.78369 11.00083,-5.20459z" fill="#fecc34"/><path d="M86.59834,244.80469c1.49341,-0.61523 3.92124,-1.45752 5.5251,-1.74756c2.13281,0.84814 4.23706,1.84717 6.34834,2.69238c7.20161,2.87842 14.07422,4.03125 21.81313,3.61816c1.66055,-0.08936 4.78315,-0.43506 5.3562,1.27148c0.12979,0.38672 0.19351,0.76904 0.00923,1.14844c-1.06758,2.20313 -5.92969,4.021 -8.08506,4.88379c-1.64209,0.65625 -4.23677,1.49707 -5.8541,1.91309c-0.06709,-0.87451 0.02432,-1.76074 -0.16304,-2.62354c-0.2228,-1.02686 -0.86704,-1.62598 -1.72852,-2.17529c-2.96997,-1.89551 -14.85864,-4.97168 -18.51328,-5.28662c-1.10039,-0.09521 -2.07363,0.00732 -3.14736,0.24463c1.52886,-1.31543 2.28691,-1.47363 4.17026,-1.99658c-1.18037,-0.35742 -4.94121,-1.37109 -5.73091,-1.94238z" fill="#ce880e"/><path d="M175.1499,261.00146c-2.14746,-1.27734 -6.68555,-3.71045 -7.38281,-6.19922c-0.59766,-2.12842 1.60547,-2.62793 3.20361,-2.58398c3.48926,0.09668 7.08545,0.24463 10.52783,-0.23437c1.68896,-0.23584 3.32813,-0.8877 5.00098,-1.20117c0.93604,-0.16699 2.74365,0.16846 3.97852,-0.01758c2.00977,-0.30322 4.27295,-0.48633 6.24756,-0.95654c1.60107,-0.37939 3.12158,-0.85986 4.7417,-1.23779c1.5542,0.49072 5.65283,2.27344 7.14844,2.97803c3.43799,1.49854 9.69873,4.61133 11.23096,8.1709c-3.40723,2.12842 -7.2085,2.24121 -11.12256,2.20459c-1.66992,-3.14941 -3.17139,-4.89111 -6.09521,-7.04736c1.46777,1.86768 7.02246,8.93408 4.61426,11.29395c-2.69092,0.92432 -12.5625,-2.21338 -15.31494,-3.45557c-0.31641,-3.1377 -0.41602,-4.62158 -2.53564,-7.10156c0.96387,2.94434 1.72852,6.01904 0.60352,9.21533c-0.12451,0.35156 -0.69287,0.98877 -1.01221,1.02246c-3.0835,0.32813 -11.4375,-3.47021 -13.83398,-4.8501z" fill="#fecc34"/><path d="M175.1499,261.00146c-2.14746,-1.27734 -6.68555,-3.71045 -7.38281,-6.19922c-0.59766,-2.12842 1.60547,-2.62793 3.20361,-2.58398c3.48926,0.09668 7.08545,0.24463 10.52783,-0.23437c1.68896,-0.23584 3.32813,-0.8877 5.00098,-1.20117c0.93604,-0.16699 2.74365,0.16846 3.97852,-0.01758c2.00977,-0.30322 4.27295,-0.48633 6.24756,-0.95654c1.60107,-0.37939 3.12158,-0.85986 4.7417,-1.23779c1.5542,0.49072 5.65283,2.27344 7.14844,2.97803c-1.00488,0.85547 -3.14648,0.94043 -4.41211,1.24805c-4.75195,1.15576 -9.4292,1.83398 -14.32031,2.0332c-3.42334,0.14063 -6.7793,-0.03223 -9.89648,1.68164c-1.86914,1.00488 -3.22412,3.02637 -4.83691,4.48975z" fill="#ce880e"/><path d="M193.76074,227.04199c2.02881,-2.54736 3.52881,-8.67187 4.22314,-11.94727c1.05908,0.25635 2.51221,1.22607 3.49951,1.72705c2.57959,1.30811 6.04834,2.59131 7.54102,5.2793c4.18506,7.53516 -1.54687,15.78955 -8.22363,19.36816c-7.25391,3.8877 -15.75146,5.61035 -23.92383,5.45508c-0.77197,-0.02637 -2.54736,-0.10254 -3.2168,-0.27539c1.604,-0.22266 5.37305,-0.3999 6.62109,-1.1001l0.03369,-0.22705c-1.69043,-1.11621 -10.83838,-0.70752 -11.21631,-1.12061c0.19775,-0.11865 0.38086,-0.22559 0.58301,-0.33984l-0.30322,-0.18604c0.104,-0.04395 0.63428,-0.12598 0.78076,-0.15234c8.93848,-2.34082 13.76514,-5.09473 20.23535,-11.6001c0.82617,-1.40625 2.19287,-2.77734 3.36621,-4.88086z" fill="#37373b"/><path d="M190.39453,231.92285c-0.23145,1.43262 -3.89648,4.22168 -5.08008,5.07861c-3.76611,2.69971 -7.94824,4.76367 -12.38232,6.11133c-0.81445,0.24756 -1.94824,0.65332 -2.77295,0.41016c8.93848,-2.34082 13.76514,-5.09473 20.23535,-11.6001z" fill="#060606"/><path d="M58.2189,165.40869c2.42798,0.16406 3.79541,0.8833 5.53945,2.6748c1.79604,1.8457 5.52612,11.74658 3.4144,13.5249c-0.99272,0.03369 -3.04673,-1.18945 -4.01733,-1.70068c1.14053,4.70654 3.36313,6.55811 3.3542,11.41406c-4.03682,-0.62402 -7.25962,-3.11279 -9.75059,-6.24756c-0.49863,-0.62256 -1.6752,-2.50635 -2.31987,-2.81104c-0.56294,0.88477 1.77817,6.57422 1.90898,8.06396c0.18062,2.05371 -0.07339,3.61816 -0.33398,5.625c-1.81406,-2.54004 -3.10151,-5.41846 -3.78677,-8.46387c-1.40566,-6.08203 -0.31846,-14.3042 2.94448,-19.71387c0.80303,-1.33154 1.57192,-2.0376 3.04702,-2.36572z" fill="#37373b"/><path d="M103.80703,187.16455c2.37583,0.02783 5.20547,0.30322 7.61265,0.45996l15.21841,1.04736c8.06147,0.5625 17.54282,0.93457 25.50205,1.75342c-0.40576,1.71094 -1.25537,3.95361 -1.84717,5.64551c-0.07178,0.21387 -0.02344,0.25781 -0.19189,0.32959c-0.56396,0.24023 -45.10928,-2.67627 -47.25205,-3.43506c-0.26733,-0.93018 0.65303,-4.76221 0.95801,-5.80078z" fill="#4f4e4f"/><path d="M81.94263,160.78564c-0.82104,-0.56982 -1.89097,-1.24512 -2.45068,-2.05225l-0.00527,-0.31934c0.84639,-0.63281 11.82671,0.14063 13.58994,0.25049l11.60991,0.65186l46.20996,3c17.09766,1.22168 34.27148,1.94824 51.33252,3.71777c3.10107,0.3208 8.36572,0.36914 11.1709,1.15137l0.13477,0.03662c0.15674,2.87549 -0.41455,7.7666 -1.26416,10.5835c-0.95215,0.68262 -1.60693,1.00195 -2.66016,1.53809c-0.03662,-3.27393 0.79395,-6.18457 0.55811,-9.24316l-0.22852,-0.1333c-1.50586,-0.88623 -2.52246,-2.34814 -4.21436,-2.56348c-3.55518,-0.45117 -7.24365,-0.69141 -10.81055,-1.01367c-0.49658,0.55225 -1.15137,1.44287 -1.84277,1.57178c-0.6167,-0.25488 -0.62695,-0.35156 -0.90088,-1.00781c-0.09668,-0.23145 -0.19043,-0.46289 -0.28271,-0.69727c-2.03613,-0.34863 -4.60693,-0.5127 -6.70605,-0.5332c-0.31055,0.5918 -0.48047,1.06348 -1.00781,1.45313c-0.9082,0.12305 -1.125,-0.86133 -1.4502,-1.59668c-1.3418,-0.19336 -6.35889,-0.95947 -7.56445,-0.37646c-0.30762,0.14795 -0.67676,1.24365 -1.29199,1.49561c-1.00928,-0.23877 -0.82617,-1.73291 -1.69482,-1.8999c-2.17236,-0.41748 -4.74463,-0.50537 -6.96533,-0.45117c-0.34277,0.55371 -0.50977,0.94336 -1.06055,1.29053c-1.00488,0.14648 -1.23047,-0.60498 -1.68896,-1.40332c-1.62891,-0.26074 -6.18604,-0.81299 -7.61426,-0.31934c-1.12793,1.68018 -1.93506,1.62012 -2.74072,-0.25488c-0.83057,-0.4834 -6.09741,-0.75586 -7.32041,-0.76758c-1.85596,2.25146 -1.86299,1.62012 -3.55884,-0.22266c-1.79136,-0.35596 -4.90605,-0.57422 -6.73887,-0.49951c-0.46641,0.54346 -0.9564,1.28174 -1.62187,1.40479c-0.53203,-0.14502 -0.59839,-0.32666 -0.9627,-0.73389l-0.71279,-0.79102c-1.68867,-0.3501 -4.85537,-0.56836 -6.66021,-0.55664c-0.39932,0.42188 -1.06626,1.27002 -1.55479,1.42676c-1.57925,-0.17725 -0.99478,-1.68311 -3.65596,-1.72852c-1.51099,-0.0249 -3.56001,-0.34863 -5.17471,-0.36475c-0.37339,0.49658 -0.69771,1.05762 -1.24907,1.29639c-0.85723,-0.13477 -1.04897,-0.71777 -1.7064,-1.35937c-1.65322,-0.3457 -5.1791,-0.59912 -6.82866,-0.50684c-1.54248,1.61719 -1.88921,1.23779 -3.30542,-0.26221c-2.17822,-0.18604 -4.7376,-0.44385 -6.90161,-0.3457c-1.87925,1.85303 -2.20767,0.90234 -4.02466,-0.53613c-1.3749,-0.09668 -5.94902,-0.68555 -6.91934,0.04541c-0.17153,0.13037 -1.01089,1.33887 -1.2646,1.62598z" fill="url(#color-1)"/><path d="M152.10352,163.66113c0.58447,0.04688 2.40234,0.05859 2.74072,0.25488c-1.12793,1.68018 -1.93506,1.62012 -2.74072,-0.25488z" fill="#888687"/><path d="M67.42925,167.84766c3.7916,0.01904 11.25088,0.19043 14.89189,0.65039l1.80088,0.40283c0.21826,2.33203 -0.13491,5.21045 -0.85342,7.43262c-0.50376,0.05713 -1.14727,0.17578 -1.62861,0.0791l-12.93911,-0.58154l-0.72642,-1.83252c-0.83232,-1.46777 -0.83174,-4.49121 -0.54521,-6.15088z" fill="#83aed5"/><path d="M67.97446,173.99854c2.75859,0.0791 5.51587,0.19482 8.27139,0.34717c1.44023,0.07178 4.25039,0.17139 5.59219,0.44824c0.07676,0.53467 0.11118,0.7998 0.11938,1.33594c-0.1522,0.16992 -0.12993,0.19043 -0.31743,0.28271l-12.93911,-0.58154z" fill="#37373b"/><path d="M82.32114,168.49805l1.80088,0.40283c0.21826,2.33203 -0.13491,5.21045 -0.85342,7.43262c-0.50376,0.05713 -1.14727,0.17578 -1.62861,0.0791c0.1875,-0.09229 0.16523,-0.11279 0.31743,-0.28271c-0.0082,-0.53613 -0.04263,-0.80127 -0.11938,-1.33594c0.25605,-1.58496 0.37632,-4.62305 0.48311,-6.2959z" fill="#37373b"/><path d="M188.43457,175.80322c1.33447,0.20068 2.91797,0.21533 4.27295,0.36768c4.31543,0.48486 9.28711,0.52002 13.54395,1.10596c-0.22559,1.29785 -0.61963,3.94043 -1.0957,4.99805c-1.36816,0.55225 -2.90332,0.50244 -4.34912,0.33252c-4.20264,-0.49512 -9.02344,-0.34717 -13.125,-1.19238c0.13477,-1.85889 0.46875,-3.76611 0.75293,-5.61182z" fill="#4f4e4f"/><path d="M181.91455,183.97705c0.90234,-0.00586 2.04785,0.07324 2.94727,0.17578c5.09033,0.58008 10.53662,0.51855 15.59326,1.18359c-0.71045,0.89355 -2.04346,1.84424 -2.9751,2.80957c-0.49072,0.63867 -1.10596,1.71533 -1.54102,2.43018c-3.31494,-0.10693 -6.66357,-0.56104 -9.97852,-0.73682c-1.58496,-0.0835 -3.19629,-0.19189 -4.771,-0.38672c0.06152,-1.93945 0.31934,-3.58887 0.7251,-5.47559z" fill="#4f4e4f"/><path d="M68.8144,176.79932c4.11167,0.33691 10.8999,0.57861 14.97773,0.58008c-0.0022,1.91895 -0.15264,4.24365 -0.45,6.13184c-0.63838,0.22852 -11.65957,-0.48047 -13.32671,-0.57275c-0.23569,-2.49023 -0.57891,-3.72656 -1.20103,-6.13916z" fill="#85a471"/><path d="M68.60347,157.80029c1.98545,-0.04395 7.76821,0.02344 9.64014,0.2124c-0.29238,1.77979 -0.46436,3.85547 -0.64629,5.66016c0.0145,0.70166 -0.10078,0.8042 0.21299,1.30518c0.39844,0.07471 0.44033,0.09668 0.83892,0.07324l0.65361,0.13916c-0.04526,0.78662 0.08701,0.76758 -0.30659,1.26855c-1.13145,0.53467 -2.28398,0.27393 -3.56309,0.10986c-0.88198,0.01465 -7.88291,-0.42041 -8.14951,-0.65771c-0.10327,-0.69287 0.1667,-1.05762 0.56382,-1.60547c0.40752,-1.604 0.62754,-4.76953 0.75601,-6.50537z" fill="#fe4e10"/><path d="M77.59731,163.67285c0.0145,0.70166 -0.10078,0.8042 0.21299,1.30518c0.39844,0.07471 0.44033,0.09668 0.83892,0.07324l0.65361,0.13916c-0.04526,0.78662 0.08701,0.76758 -0.30659,1.26855c-1.13145,0.53467 -2.28398,0.27393 -3.56309,0.10986c-0.88198,0.01465 -7.88291,-0.42041 -8.14951,-0.65771c-0.10327,-0.69287 0.1667,-1.05762 0.56382,-1.60547c0.81929,0.59912 8.14673,0.60791 9.64746,0.6958c-0.02607,-0.50098 -0.10283,-0.88037 0.10239,-1.32861z" fill="#a31800"/><path d="M77.59731,163.67285c0.0145,0.70166 -0.10078,0.8042 0.21299,1.30518c0.39844,0.07471 0.44033,0.09668 0.83892,0.07324l0.65361,0.13916c-0.04526,0.78662 0.08701,0.76758 -0.30659,1.26855c-1.13145,0.53467 -2.28398,0.27393 -3.56309,0.10986c0.66768,-0.06885 1.38457,0.08496 1.88262,-0.26953c0.23877,-0.4248 0.1793,-0.7998 0.17915,-1.29785c-0.02607,-0.50098 -0.10283,-0.88037 0.10239,-1.32861z" fill="#8f1a01"/><path d="M225.60352,213.82764c0.25488,0.32666 1.15869,2.27197 1.42969,2.79346c1.96436,3.78076 3.94629,7.59961 7.14844,10.5c0.66943,0.60791 3.01025,2.65283 3.16113,3.22266c-0.36914,0.33105 -0.56836,0.2417 -1.1748,0.31641c-3.66357,0.06299 -8.35254,-1.37695 -11.75391,-2.75391c-0.03223,-1.77832 0.47314,-4.72998 0.69141,-6.61084c0.30469,-2.63232 0.41162,-4.81348 0.49805,-7.46777z" fill="#37373b"/><path d="M195.14648,166.9834c1.58203,0.0249 4.05908,0.3501 5.68945,0.49951c1.76221,0.16406 4.37695,0.3501 6.03516,0.70166c0.05713,1.04883 -0.07764,5.18408 -0.66357,5.95459c-3.81152,-0.50537 -8.07275,-0.75732 -11.93701,-1.15137c0.09814,-2.17969 0.31494,-3.90674 0.87598,-6.00439z" fill="#4f4e4f"/><path d="M90.74795,186.6167c1.27925,-0.01758 7.82153,0.17139 8.52876,0.80713c0.0356,1.18359 -1.26021,4.23047 -1.72749,5.46387c-0.59004,0.38086 -7.18535,-0.22559 -8.38535,-0.28418c0.47183,-2.18115 0.80142,-3.84668 1.58408,-5.98682z" fill="#4f4e4f"/><path d="M79.26768,185.71289c2.30801,0.03076 5.69531,0.44385 8.06162,0.66211c-0.77563,1.91016 -1.51216,3.83643 -2.20884,5.77588l-0.13506,0.20215c-0.71719,0.29443 -6.2644,-0.19629 -7.41812,-0.30908c0.40723,-2.67041 0.79292,-3.86865 1.70039,-6.33105z" fill="#4f4e4f"/><path d="M168.25781,191.56201c2.39941,0.06592 5.0625,0.15527 7.44287,0.45264c-0.55371,1.96875 -1.04883,3.95361 -1.48828,5.9502c-0.62988,0.16406 -6.10254,-0.2959 -7.17773,-0.375c0.12744,-1.82666 0.39844,-4.36816 1.22314,-6.02783z" fill="#4f4e4f"/><path d="M66.91787,185.33057c1.98267,-0.01465 4.18271,0.13477 6.1667,0.17139c2.3124,0.04102 0.91069,4.72559 0.66021,6.22705c-0.71675,0.48926 -5.43999,-0.12744 -6.63267,-0.26367c1.27002,-2.5415 0.10327,-3.61963 -0.19424,-6.13477z" fill="#4f4e4f"/><path d="M156.81445,190.81934c2.30127,0.15381 4.49707,0.21094 6.81445,0.41162c-0.40137,1.95996 -0.93311,4.07666 -1.38428,6.03809c-0.59033,0.1333 -5.89014,-0.30029 -6.74854,-0.39258c0.35596,-2.28516 0.60938,-3.8291 1.31836,-6.05713z" fill="#4f4e4f"/><path d="M175.57031,165.50684c2.08594,0.13623 4.53809,0.42334 6.63428,0.65771c-0.25195,1.71973 -0.75732,3.89795 -1.11914,5.62939l-0.0835,0.17139c-0.4585,0.28271 -5.21045,-0.25488 -6.08936,-0.31787c-0.06445,-1.94385 0.13184,-4.2627 0.65771,-6.14062z" fill="#4f4e4f"/><path d="M134.58794,162.85254c2.18701,0.03076 4.1562,0.0791 6.33691,0.38818c-0.31846,2.00684 -0.69287,4.00488 -1.1231,5.99121c-1.38442,-0.0791 -5.35679,0.0249 -6.15952,-0.76318c-0.50508,-1.16602 0.57363,-4.25391 0.9457,-5.61621z" fill="#4f4e4f"/><path d="M97.09395,169.39014c1.98647,0.0835 4.13071,0.23438 6.09375,0.54053c-0.05376,0.9375 -0.86631,5.23389 -1.41182,5.87695c-1.98149,-0.25342 -4.08838,-0.26514 -6.14385,-0.5083c0.11865,-1.64502 0.37441,-3.89209 0.91392,-5.48584c0.11572,-0.34131 0.24946,-0.31348 0.548,-0.42334z" fill="#4f4e4f"/><path d="M155.354,164.22656c2.23242,0.11719 4.46191,0.271 6.68701,0.46143c-0.37354,1.9834 -0.7793,3.96094 -1.21875,5.92969c-0.59473,0.24609 -5.25,-0.32812 -6.30322,-0.43506c0.19336,-1.91748 0.54785,-4.03125 0.83496,-5.95605z" fill="#4f4e4f"/><path d="M165.46582,164.89014c2.21631,0.04248 4.3623,0.21973 6.57129,0.38525c-0.29297,1.96289 -0.67529,4.02393 -1.00781,5.98682c-1.73291,-0.02637 -4.7417,-0.2915 -6.4541,-0.52002c0.15381,-1.88379 0.44531,-4.01367 0.89063,-5.85205z" fill="#4f4e4f"/><path d="M124.62056,162.00293c1.93374,0.19775 4.15781,0.28857 6.11616,0.40283l-1.0708,6.21826c-1.80161,0.02051 -4.35527,-0.2124 -6.14956,-0.42187c0.06826,-1.72412 0.33442,-4.69482 1.1042,-6.19922z" fill="#4f4e4f"/><path d="M170.90039,182.80078c2.03467,0.04248 4.6626,0.35156 6.73535,0.54785c-0.22705,1.70508 -1.00195,3.7749 -1.35498,5.70557c-0.66357,0.14209 -5.46387,-0.31201 -6.38379,-0.41016c0.23145,-1.92627 0.54199,-3.95947 1.00342,-5.84326z" fill="#4f4e4f"/><path d="M150.09668,181.33594c1.90576,0.10547 4.59082,0.44824 6.49805,0.71484c-0.45264,1.93945 -0.87012,3.75 -1.43701,5.66016c-0.98437,0.19189 -5.08887,-0.2666 -6.24316,-0.38232c0.1377,-1.76807 0.67529,-4.30518 1.18213,-5.99268z" fill="#4f4e4f"/><path d="M146.90039,172.66699c2.15771,0.11426 4.44873,0.33691 6.61377,0.5127l-1.17187,5.78467c-1.67432,-0.01172 -4.69775,-0.33984 -6.44033,-0.51855c0.10957,-1.77393 0.53818,-4.06934 0.99844,-5.77881z" fill="#4f4e4f"/><path d="M145.07344,163.45313c2.09648,0.20508 4.2,0.32813 6.30645,0.36475c-0.13037,1.80762 -0.75293,4.22607 -1.19824,6.01904c-0.88184,0.23145 -4.85171,-0.23145 -5.9373,-0.34131c-0.02549,-1.59814 0.27642,-4.56006 0.8291,-6.04248z" fill="#4f4e4f"/><path d="M160.25244,182.23828c2.07129,0.06592 4.64063,0.22852 6.68115,0.49512c-0.15234,1.6377 -0.74414,3.96533 -1.11768,5.61621c-0.92432,0.10986 -5.28076,-0.28564 -6.45557,-0.37207c0.14795,-1.80908 0.67676,-3.79248 0.89209,-5.73926z" fill="#4f4e4f"/><path d="M139.65659,180.76904c2.09795,0.14502 4.19297,0.33105 6.28359,0.55957c-0.39697,1.88086 -0.98174,4.00195 -1.45957,5.88428c-2.00376,-0.08496 -4.17817,-0.26514 -6.19028,-0.39697c0.2959,-2.07568 0.84009,-4.02246 1.36626,-6.04687z" fill="#4f4e4f"/><path d="M107.11084,170.06982c2.06997,0.27979 4.23838,0.21533 6.32769,0.66357c-0.38159,1.95264 -0.8376,3.67822 -1.34546,5.60303c-0.94746,0.16992 -5.00229,-0.20361 -6.14019,-0.29297c0.12627,-1.74316 0.49819,-4.396 1.15796,-5.97363z" fill="#4f4e4f"/><path d="M185.44043,166.25244c1.62012,0.01025 4.54834,0.32813 6.19482,0.52148c-0.11719,1.97168 -0.44824,3.86865 -0.83643,5.80371c-2.04346,-0.03223 -4.08398,-0.16406 -6.11426,-0.39697c0.09668,-1.80762 0.3252,-4.21729 0.75586,-5.92822z" fill="#4f4e4f"/><path d="M94.34224,160.05908c2.06382,0.19775 4.12925,0.37646 6.19629,0.5376c-0.32095,1.92334 -0.72847,3.83936 -1.05542,5.77881c-1.77422,0.12598 -4.3002,-0.03955 -6.09653,-0.13623c0.12422,-2.08594 0.44414,-4.1543 0.95566,-6.18018z" fill="#4f4e4f"/><path d="M136.69219,171.95508c2.09297,0.03076 4.43027,0.29443 6.53687,0.48926c-0.47314,1.8208 -0.8874,3.65479 -1.24204,5.50195c-0.51489,0.41162 -5.37759,-0.08496 -6.26924,-0.15088c0.13286,-1.81055 0.57231,-4.06641 0.97441,-5.84033z" fill="#4f4e4f"/><path d="M86.32793,168.86572c2.06499,0.05566 4.29712,0.17871 6.34116,0.47314c-0.11982,1.85156 -0.64497,3.89355 -1.06582,5.71582c-2.0833,-0.15527 -4.16909,-0.27686 -6.25649,-0.36035c0.16919,-1.604 0.66724,-4.20264 0.98115,-5.82861z" fill="#4f4e4f"/><path d="M104.4293,160.79736c1.92012,-0.01318 4.33052,0.27979 6.34438,0.37061c-0.37866,1.96436 -0.73081,3.84961 -1.22241,5.79053c-0.37661,0.38232 -5.04873,-0.20947 -5.94316,-0.29297c0.16978,-2.08594 0.29912,-3.82324 0.82119,-5.86816z" fill="#4f4e4f"/><path d="M83.66558,159.53613c1.48623,-0.02637 4.94707,0.18018 6.35479,0.39551c-0.37983,1.86328 -0.79336,3.71924 -1.24043,5.56641l-0.14795,0.23291c-0.74312,0.31494 -4.62261,-0.01904 -5.62207,-0.08203c0.10796,-1.24805 0.37339,-5.1123 0.65566,-6.11279z" fill="#4f4e4f"/><path d="M117.11118,170.4873c1.99541,0.31934 3.99697,0.31494 5.99736,0.6416c-0.45146,1.87354 -0.64717,3.89209 -1.12778,5.8374c-2.01138,-0.00879 -4.02012,-0.14795 -6.01377,-0.41602c0.22222,-1.58057 0.58506,-4.68896 1.14419,-6.06299z" fill="#4f4e4f"/><path d="M89.42007,177.84814c1.72485,0.23438 4.4354,0.31934 6.32476,0.49072c-0.38584,2.02002 -0.90278,3.646 -1.60166,5.58398c-1.06157,0.22559 -4.84336,-0.14502 -6.02314,-0.27246c0.19702,-1.37842 0.79189,-4.61279 1.30005,-5.80225z" fill="#4f4e4f"/><path d="M114.33677,161.40674c1.63315,0.03076 4.41138,0.38379 6.15747,0.5332c-0.31685,2.02295 -0.79438,3.90674 -1.34751,5.86963c-0.69199,0.12891 -4.7981,-0.33398 -5.74629,-0.4292c0.20552,-1.90137 0.46245,-4.13086 0.93633,-5.97363z" fill="#4f4e4f"/><path d="M177.88477,174.9668c2.2251,0.25195 4.45898,0.43506 6.6958,0.54639c-0.3457,1.78711 -0.6958,3.54199 -0.97559,5.34229c-0.68115,0.48193 -5.08447,-0.08789 -6.22852,-0.20068c0.04248,-1.81348 0.30615,-3.87451 0.5083,-5.68799z" fill="#4f4e4f"/><path d="M99.99756,178.40186c1.9916,0.04395 3.97749,0.23291 5.94155,0.56543c-0.43169,2.28369 -0.74634,3.44531 -1.63286,5.5957c-0.55562,0.3208 -4.8189,-0.18311 -5.66382,-0.33252c0.15205,-1.88672 0.7355,-4.04297 1.35513,-5.82861z" fill="#4f4e4f"/><path d="M109.95483,178.81934c1.95044,0.20654 3.93604,0.27979 5.85894,0.63867c-0.22983,1.77539 -0.89502,3.92578 -1.39395,5.67334c-1.08413,0.18457 -4.40215,-0.06738 -5.60405,-0.14648c0.06094,-2.09473 0.56777,-4.16016 1.13906,-6.16553z" fill="#4f4e4f"/><path d="M126.96812,171.36035c1.95161,-0.00293 4.04355,0.104 5.95225,0.49365c-0.46978,1.81934 -0.5915,3.74268 -1.1562,5.68945c-1.84717,-0.0542 -3.92065,-0.23145 -5.78071,-0.35303c0.03486,-1.53369 0.51782,-4.38428 0.98467,-5.83008z" fill="#4f4e4f"/><path d="M120.13945,179.55908c1.95586,0.05713 4.05381,0.18604 5.97217,0.56982c-0.48413,1.9541 -0.97852,3.66943 -1.70625,5.54736c-0.55737,0.19629 -4.79341,-0.23584 -5.69868,-0.31055c0.34863,-2.08301 0.81958,-3.81152 1.43276,-5.80664z" fill="#4f4e4f"/><path d="M167.72607,174.31055c1.73584,0.04688 4.3667,0.24902 6.06445,0.49365c-0.09082,1.61572 -0.59033,3.71484 -0.92139,5.33789c-1.50146,0.18018 -4.3374,-0.07471 -5.85937,-0.24609c0.01758,-2.05371 0.31201,-3.60791 0.71631,-5.58545z" fill="#4f4e4f"/><path d="M129.6605,180.1582c1.49429,0.04541 4.38135,0.24316 5.79946,0.52734c-0.46304,1.86768 -0.91348,3.73682 -1.35146,5.61035c-1.36201,0.05127 -4.2936,-0.19043 -5.60962,-0.46143c0.20098,-1.90576 0.68247,-3.82324 1.16162,-5.67627z" fill="#4f4e4f"/><path d="M157.69482,173.61035c2.05078,0.13477 3.77051,0.11865 5.87109,0.34131c-0.32812,1.88379 -0.63721,3.78955 -1.05322,5.6543c-1.53662,-0.01025 -4.03711,-0.27686 -5.625,-0.40283c0.03955,-1.72998 0.48047,-3.87012 0.80713,-5.59277z" fill="#4f4e4f"/><path d="M191.72021,192.60645c2.29541,-0.01318 4.771,0.15674 6.99609,0.73975c-0.01758,0.9375 -0.03223,1.93799 -0.31934,2.83008l-0.31641,0.12598c-2.4873,-0.10254 -4.97168,-0.28418 -7.44873,-0.54639c0.34131,-1.37402 0.49072,-1.89111 1.08838,-3.14941z" fill="#4f4e4f"/><path d="M180.39404,191.80664c2.08008,0.21387 4.13818,0.24902 6.27686,0.48486c-0.31201,1.05615 -0.60205,2.26025 -0.88623,3.33691c-1.26123,0.20801 -4.80469,-0.15234 -6.28418,-0.23877c0.16992,-1.32129 0.44531,-2.34082 0.89355,-3.58301z" fill="#888687"/><path d="M152.59863,191.32324c0.86719,0.16846 1.875,0.29004 2.49463,0.92432c0.12451,0.87744 -0.84668,6.21387 -1.17041,6.70898l-1.33154,0.20361c-0.39551,-0.8877 -0.77783,-1.78271 -1.14551,-2.68213c0.25049,-1.55273 0.80859,-3.55225 1.15283,-5.15479z" fill="#37373b"/><path d="M190.42236,196.6333c2.49316,0.39111 5.32178,0.52881 7.86621,0.69727c-0.06592,0.76318 -0.16553,1.44727 -0.27539,2.2002c-2.08887,-0.03809 -5.73047,-0.47314 -7.95996,-0.64307c0.06152,-0.78662 0.21826,-1.48389 0.36914,-2.25439z" fill="#4f4e4f"/><path d="M179.07275,196.28906c2.2002,0.44238 4.54395,0.36328 6.80127,0.53027c-0.04541,0.63428 -0.04687,1.5 -0.30762,2.04785c-2.27344,-0.0791 -4.7417,-0.34277 -7.00635,-0.55957c0.1582,-0.8042 0.27246,-1.23926 0.5127,-2.01855z" fill="#6e6d6e"/><path d="M157.11182,182.28223c0.62549,0.31641 0.95068,0.73389 1.40625,1.24072c0.02637,0.82031 -0.44971,5.82715 -0.81006,6.41016l-0.84229,-0.09521c-1.75049,-1.01953 -0.13916,-5.95752 0.24609,-7.55566z" fill="#37373b"/><path d="M67.46587,158.02441l0.13901,0.15381c-0.24902,2.37305 -0.38613,4.75781 -0.64277,7.11475c-0.09829,0.90527 -0.46992,2.50488 -0.64746,3.47607l-0.10913,-0.00732c-1.15415,-2.42578 -0.8061,-9.14355 1.26035,-10.7373z" fill="#6e6d6e"/><path d="M185.95605,176.42139c0.43359,0.04102 0.42627,0.00732 0.75439,0.28271c0.55664,1.13525 0.12158,4.32568 -0.20068,5.62061c-0.11426,0.45996 -0.41895,0.49805 -0.82031,0.67529l-0.61963,-0.15088c-1.19971,-1.12646 0.06006,-5.23389 0.88623,-6.42773z" fill="#37373b"/><path d="M167.50781,183.67383c0.57568,0.15967 0.67529,0.16113 1.15137,0.49512c0.65186,1.21143 0.13184,5.32324 -0.81885,6.479l-0.28711,0.19629l-0.30615,-0.07617c-0.79687,-1.13379 0.0249,-5.60889 0.26074,-7.09424z" fill="#37373b"/><path d="M88.12383,187.08984c0.26851,0.07324 0.42803,0.13477 0.68877,0.23145c0.37412,0.76172 -1.00151,5.8916 -1.11577,7.03125c0,0 -0.37603,0.39404 -0.42554,0.44531c-0.17344,-0.05127 -0.45498,-0.08496 -0.51255,-0.22705c-0.58784,-1.4458 0.39404,-6.71191 1.36509,-7.48096z" fill="#37373b"/><path d="M106.4001,179.51221c0.75015,0.271 1.34121,0.29004 1.56299,1.18799c0.35698,1.44727 -0.40474,3.72803 -1.0582,4.99805c-0.15088,0.18164 -0.04951,0.08203 -0.3356,0.26221c-0.42422,-0.1582 -0.61875,-0.60205 -0.88315,-1.00928c0.0895,-1.69775 0.58169,-3.59766 0.71396,-5.43896z" fill="#37373b"/><path d="M126.6999,180.87158c0.38979,0.14209 0.80859,0.25195 1.08721,0.57568c0.26353,0.30615 -0.48735,5.23535 -0.571,6.06006c-0.56528,-0.01172 -1.07739,0.05273 -1.45269,-0.39844c-0.24888,-1.30811 0.62153,-4.77246 0.93647,-6.2373z" fill="#37373b"/><path d="M75.3397,185.89746c2.4687,0.854 1.14214,4.31982 0.8209,6.39404c-0.346,0.00732 -0.95684,0.02051 -1.11226,-0.3208c-0.66079,-1.4502 0.07295,-4.51904 0.29136,-6.07324z" fill="#37373b"/><path d="M96.68437,179.52979c0.38276,0.02637 0.41675,-0.01465 0.71514,0.20508c0.31978,0.83643 0.17227,2.85352 0.06284,3.76172c-0.15718,1.30664 -0.02563,1.63623 -1.01704,2.45508c-1.4959,-1.09277 -0.66445,-5.22363 0.23906,-6.42187z" fill="#37373b"/><path d="M144.83569,173.33203l0.12803,0.18896c-0.03135,1.42676 -0.16992,4.02686 -0.79336,5.40234c-0.20391,0.44971 -0.59238,0.39697 -1.08501,0.47461c-0.52178,-1.36377 -0.13418,-4.29639 0.6,-5.55176c0.21958,-0.37646 0.75117,-0.43359 1.15034,-0.51416z" fill="#37373b"/><path d="M164.81104,174.34717c1.85742,0.4585 0.56836,5.01416 0.31641,6.37646c-0.41162,-0.0791 -0.93018,-0.15967 -1.07227,-0.6167c-0.53613,-1.72559 0.1084,-4.14551 0.75586,-5.75977z" fill="#37373b"/><path d="M154.81494,174.51709l0.46729,0.10693c0.39258,0.46875 0.18457,3.56836 0.17725,4.39893c-0.38379,0.72949 -0.43213,0.91113 -1.021,1.45166c-0.31787,-0.0835 -0.41602,-0.12158 -0.7207,-0.23584c-0.65918,-1.10596 0.33838,-4.75049 1.09717,-5.72168z" fill="#37373b"/><path d="M124.30547,171.99316l0.46919,0.17725c0.34292,0.59326 0.26821,4.94092 0.15791,5.79785c-0.30293,0.22998 -0.87583,0.16553 -1.33462,0.18311l-0.4248,-0.1084c-0.32314,-0.82471 0.8521,-4.96436 1.13232,-6.0498z" fill="#37373b"/><path d="M133.82124,172.65234c0.4251,0.01904 0.4251,0.00879 0.82485,0.14209c0.5231,0.80273 0.0791,4.83105 -0.48662,5.39502c-0.69829,-0.08057 -0.75923,0.02637 -1.24263,-0.32959c0.01626,-0.99609 0.72949,-3.84521 0.90439,-5.20752z" fill="#37373b"/><path d="M84.38833,177.25195c1.5854,1.29053 1.88701,3.01172 1.47773,4.98486c-0.9082,-0.18457 -1.15283,-0.89502 -1.45356,-1.66992c-0.02681,-1.10449 -0.03486,-2.21045 -0.02417,-3.31494z" fill="#37373b"/><path d="M84.4125,180.56689l0.29033,0.06738c0.3772,0.08496 0.51211,0.09375 0.89282,0.11572c0.33062,0.39258 0.23789,0.87012 0.27041,1.48682c-0.9082,-0.18457 -1.15283,-0.89502 -1.45356,-1.66992z" fill="#4f4e4f"/><path d="M78.79819,159.36621c0.44282,0.46582 0.87261,0.94629 1.36436,1.35791c-0.12788,0.89063 -0.53467,3.81885 -0.85972,4.46631l-0.65361,-0.13916c-0.12231,-1.61572 0.42202,-3.00293 0.1916,-5.26025l-0.0252,-0.26514z" fill="#37373b"/></g></svg></svg>